<svg xmlns="http://www.w3.org/2000/svg" width="144" height="32"><defs><symbol id="icon-arrowright" viewBox="0 0 24 24"><path d="M24 12 13 4v6H0v4h13v6z"/></symbol><symbol id="icon-checked" viewBox="0 0 31 32"><path d="M27.655 5.267A13.019 13.019 0 0 0 17.185 0c-4.15 0-7.846 1.939-10.234 4.96-.482.287-.945.602-1.388.942a.592.592 0 0 0 .111 1.008 12.976 12.976 0 0 0-1.527 6.128c0 7.2 5.837 13.037 13.037 13.037a12.99 12.99 0 0 0 8.929-3.538 13 13 0 0 1-1.548 2.585.593.593 0 0 0 .94.722 14.203 14.203 0 0 0 1.859-3.214.593.593 0 0 0-.535-.819 12.99 12.99 0 0 0 3.393-8.773c0-1.57-.277-3.074-.786-4.468l-9.174 9.829a1.778 1.778 0 0 1-2.557.044l-4.741-4.741a1.778 1.778 0 0 1 2.514-2.514l3.44 3.44 8.736-9.36zM3.77 8.418c.26.199.308.571.109.831a12.995 12.995 0 0 0-1.704 2.946.592.592 0 1 1-1.094-.454A14.197 14.197 0 0 1 2.94 8.527a.593.593 0 0 1 .831-.109zM.784 14.817c.325.042.553.34.511.664a13.108 13.108 0 0 0 0 3.406.592.592 0 1 1-1.175.153 14.409 14.409 0 0 1 0-3.714.592.592 0 0 1 .664-.511zm.616 7.038a.593.593 0 0 1 .774.32 13.01 13.01 0 0 0 1.704 2.946.593.593 0 0 1-.94.722 14.203 14.203 0 0 1-1.859-3.214.593.593 0 0 1 .32-.774zm21.59 5.783a.592.592 0 0 1-.109.831 14.203 14.203 0 0 1-3.214 1.859.593.593 0 0 1-.454-1.094 13.01 13.01 0 0 0 2.946-1.704.593.593 0 0 1 .831.109zm-17.535 0a.593.593 0 0 1 .831-.109c.897.69 1.887 1.265 2.946 1.704a.592.592 0 1 1-.454 1.094 14.197 14.197 0 0 1-3.214-1.859.593.593 0 0 1-.109-.831zm6.399 2.985a.592.592 0 0 1 .664-.511 13.108 13.108 0 0 0 3.406 0 .592.592 0 1 1 .153 1.175 14.409 14.409 0 0 1-3.714 0 .592.592 0 0 1-.511-.664z"/></symbol><symbol id="icon-elipsearrow" viewBox="0 0 32 32"><path fill="#fff" d="M32 16c0 8.837-7.163 16-16 16S0 24.837 0 16 7.163 0 16 0s16 7.163 16 16z"/><path fill="none" stroke="#000" stroke-linecap="round" stroke-linejoin="round" stroke-width="1.032" d="M17.29 19.226 14.064 16l3.226-3.226"/></symbol><symbol id="icon-logo" viewBox="0 0 144 32"><path d="M31.636 6.963 34.8.4H19.298l-9.35 20.938 4.093 9.063 4.468-10.312h7.117l3.164-6.875h-7.089l2.729-6.25h7.208zM0 .4l7.978 16.875L15.818.4H0zM42 31.6V.4h19.411v5.773H48v6.622h10.764v5.773H48V31.6h-6zM63.629 31.6V.4h6v31.2h-6zM84.755 31.6c-2.397 0-4.5-.516-6.309-1.549s-3.22-2.455-4.235-4.266c-1-1.825-1.5-3.919-1.5-6.282 0-2.391.515-4.493 1.544-6.304 1.029-1.825 2.448-3.247 4.257-4.266s3.889-1.528 6.242-1.528c2.397 0 4.5.516 6.309 1.549a10.96 10.96 0 0 1 4.257 4.287c1.015 1.811 1.522 3.898 1.522 6.261 0 2.377-.515 4.478-1.544 6.304a10.999 10.999 0 0 1-4.257 4.266c-1.809 1.019-3.904 1.528-6.287 1.528zm0-5.391c1.926 0 3.36-.623 4.301-1.868.956-1.259 1.434-2.872 1.434-4.839 0-2.038-.485-3.665-1.456-4.882-.956-1.217-2.382-1.825-4.279-1.825-1.309 0-2.382.283-3.22.849S80.072 14.995 79.66 16c-.397 1.005-.595 2.172-.595 3.502 0 2.052.478 3.686 1.434 4.903.971 1.203 2.39 1.804 4.257 1.804zM99.488 31.6V.4h6.088v18.678l8.073-11.037h7.412l-8.603 11.461 9 12.098h-7.808l-8.073-11.674.044 11.674h-6.132z"/><path d="M131.912 31.6c-2.397 0-4.5-.516-6.309-1.549s-3.221-2.455-4.235-4.266c-1-1.825-1.499-3.919-1.499-6.282 0-2.391.515-4.493 1.544-6.304 1.03-1.825 2.449-3.247 4.257-4.266s3.89-1.528 6.243-1.528c2.397 0 4.5.516 6.309 1.549a10.966 10.966 0 0 1 4.257 4.287c1.015 1.811 1.522 3.898 1.522 6.261 0 2.377-.515 4.478-1.544 6.304a10.999 10.999 0 0 1-4.257 4.266c-1.809 1.019-3.904 1.528-6.286 1.528zm0-5.391c1.927 0 3.36-.623 4.301-1.868.956-1.259 1.433-2.872 1.433-4.839 0-2.038-.485-3.665-1.455-4.882-.956-1.217-2.383-1.825-4.28-1.825-1.309 0-2.382.283-3.221.849s-1.463 1.351-1.875 2.356c-.397 1.005-.596 2.172-.596 3.502 0 2.052.478 3.686 1.434 4.903.97 1.203 2.39 1.804 4.257 1.804z"/></symbol><symbol id="icon-twitter" viewBox="0 0 32 32"><path d="M31.525 6.583a12.42 12.42 0 0 1-3.567.977 6.23 6.23 0 0 0 2.731-3.437 12.4 12.4 0 0 1-3.944 1.507 6.212 6.212 0 0 0-10.197 1.689 6.221 6.221 0 0 0-.387 3.978A17.636 17.636 0 0 1 3.359 4.806a6.213 6.213 0 0 0-.84 3.123A6.208 6.208 0 0 0 5.282 13.1a6.194 6.194 0 0 1-2.813-.777v.08a6.216 6.216 0 0 0 4.982 6.091 6.255 6.255 0 0 1-2.805.107 6.22 6.22 0 0 0 5.803 4.312 12.465 12.465 0 0 1-7.715 2.66c-.495 0-.991-.029-1.483-.087a17.568 17.568 0 0 0 9.52 2.791c11.427 0 17.673-9.464 17.673-17.672 0-.267-.007-.536-.019-.803a12.63 12.63 0 0 0 3.097-3.213l.003-.004z"/></symbol><symbol id="icon-instagram" viewBox="0 0 32 32"><path d="M9.951 1.422c1.564-.072 2.063-.088 6.047-.088s4.483.017 6.045.088c1.563.071 2.629.32 3.563.681a7.218 7.218 0 0 1 2.597 1.693 7.158 7.158 0 0 1 1.691 2.596c.363.933.611 2 .683 3.56.072 1.567.088 2.065.088 6.048 0 3.984-.017 4.483-.088 6.047-.071 1.56-.32 2.627-.683 3.56a7.19 7.19 0 0 1-1.691 2.599 7.187 7.187 0 0 1-2.597 1.691c-.933.363-2 .611-3.56.683-1.565.072-2.064.088-6.048.088s-4.483-.017-6.047-.088c-1.56-.071-2.627-.32-3.56-.683a7.19 7.19 0 0 1-2.599-1.691A7.185 7.185 0 0 1 2.1 25.609c-.361-.933-.609-2-.681-3.56-.072-1.567-.088-2.065-.088-6.048s.017-4.483.088-6.045.32-2.629.681-3.563a7.192 7.192 0 0 1 1.693-2.597 7.195 7.195 0 0 1 2.596-1.692c.933-.361 2-.609 3.56-.681h.001zm11.974 2.64c-1.547-.071-2.011-.085-5.927-.085s-4.38.015-5.927.085c-1.431.065-2.207.304-2.724.505A4.57 4.57 0 0 0 5.66 5.663 4.543 4.543 0 0 0 4.564 7.35c-.201.517-.44 1.293-.505 2.724-.071 1.547-.085 2.011-.085 5.927s.015 4.38.085 5.927c.065 1.431.304 2.207.505 2.724a4.56 4.56 0 0 0 1.096 1.687 4.551 4.551 0 0 0 1.687 1.096c.517.201 1.293.44 2.724.505 1.547.071 2.009.085 5.927.085s4.38-.015 5.927-.085c1.431-.065 2.207-.304 2.724-.505a4.57 4.57 0 0 0 1.687-1.096 4.551 4.551 0 0 0 1.096-1.687c.201-.517.44-1.293.505-2.724.071-1.547.085-2.011.085-5.927s-.015-4.38-.085-5.927c-.065-1.431-.304-2.207-.505-2.724a4.57 4.57 0 0 0-1.096-1.687 4.543 4.543 0 0 0-1.687-1.096c-.517-.201-1.293-.44-2.724-.505zm-7.8 16.46a4.89 4.89 0 0 0 5.948-1.799 4.89 4.89 0 0 0-.614-6.182 4.887 4.887 0 0 0-3.94-1.408 4.897 4.897 0 0 0-4.204 6.289c.21.692.571 1.329 1.056 1.866s1.084.958 1.752 1.235zm-3.458-9.852a7.538 7.538 0 1 1 10.66 10.661 7.538 7.538 0 0 1-10.66-10.661zm14.542-1.086a1.785 1.785 0 0 0-.553-2.948 1.786 1.786 0 0 0-1.967.428 1.786 1.786 0 0 0 .036 2.484 1.784 1.784 0 0 0 2.484.036z"/></symbol><symbol id="icon-circle"  viewBox="0 0 1024 1024"><path d="M950.857143 512q0 119.428571-58.857143 220.285714T732.285714 892 512 950.857143t-220.285714-58.857143T132 732.285714 73.142857 512t58.857143-220.285714T291.714286 132 512 73.142857t220.285714 58.857143T892 291.714286 950.857143 512z"  /></symbol><symbol id="icon-hamburger" viewBox="0 0 128 128"><path d="M64 14A50 50 0 1 0 64 114A50 50 0 1 0 64 14Z"/><path fill="#444b54" d="M64,117c-29.2,0-53-23.8-53-53s23.8-53,53-53s53,23.8,53,53S93.2,117,64,117z M64,17c-25.9,0-47,21.1-47,47s21.1,47,47,47s47-21.1,47-47S89.9,17,64,17z"/><path fill="#444b54" d="M86.5 52h-45c-1.7 0-3-1.3-3-3s1.3-3 3-3h45c1.7 0 3 1.3 3 3S88.2 52 86.5 52zM86.5 67h-45c-1.7 0-3-1.3-3-3s1.3-3 3-3h45c1.7 0 3 1.3 3 3S88.2 67 86.5 67z"/><g><path fill="#444b54" d="M86.5,82h-45c-1.7,0-3-1.3-3-3s1.3-3,3-3h45c1.7,0,3,1.3,3,3S88.2,82,86.5,82z"/></g></symbol><symbol id="icon-linkedin" viewBox="0 0 32 32"><path d="M29 0H3C1.35 0 0 1.35 0 3v26c0 1.65 1.35 3 3 3h26c1.65 0 3-1.35 3-3V3c0-1.65-1.35-3-3-3zM12 26H8V12h4v14zm-2-16c-1.106 0-2-.894-2-2s.894-2 2-2c1.106 0 2 .894 2 2s-.894 2-2 2zm16 16h-4v-8c0-1.106-.894-2-2-2s-2 .894-2 2v8h-4V12h4v2.481C18.825 13.35 20.087 12 21.5 12c2.488 0 4.5 2.238 4.5 5v9z"/></symbol></defs></svg>